<?xml version="1.0" encoding="utf-8"?>
<svg width="96" height="96" viewBox="-1.9 19.719 75.22 75.981" xmlns="http://www.w3.org/2000/svg">
  <defs>
    <radialGradient gradientUnits="userSpaceOnUse" cx="46.874" cy="47.841" r="27.111" id="gradient-0" gradientTransform="matrix(1.354264, -0.003394, 0.004326, 1.726298, -27.938603, -34.397614)">
      <stop offset="0" style="stop-color: rgb(80, 180, 255);"/>
      <stop offset="1" style="stop-color: rgb(0, 102, 179);"/>
    </radialGradient>
    <linearGradient gradientUnits="userSpaceOnUse" x1="562.672" y1="1005.874" x2="562.672" y2="1319.49" id="gradient-1">
      <stop offset="0" style="stop-color: rgb(100% 100% 0%)"/>
      <stop offset="1" style="stop-color: rgb(54.442% 57.667% 0%)"/>
    </linearGradient>
    <linearGradient gradientUnits="userSpaceOnUse" x1="546.912" y1="780.58" x2="546.912" y2="926.64" id="gradient-2">
      <stop offset="0" style="stop-color: rgb(100% 100% 0%)"/>
      <stop offset="1" style="stop-color: rgb(54.442% 57.667% 0%)"/>
    </linearGradient>
    <linearGradient gradientUnits="userSpaceOnUse" x1="405.708" y1="894.804" x2="405.708" y2="1052.102" id="gradient-3">
      <stop offset="0" style="stop-color: rgb(100% 100% 0%)"/>
      <stop offset="1" style="stop-color: rgb(54.442% 57.667% 0%)"/>
    </linearGradient>
  </defs>
  <path d="M 46.827 51.475 C 46.827 51.475 41.295 58.54 34.225 51.475 C 27.369 44.824 22.382 51.475 22.382 51.475 L 5.867 84.026 C 5.388 85.797 6.443 87.62 8.214 88.095 L 63.066 88.095 C 64.839 87.62 65.892 85.801 65.417 84.026 L 46.827 51.475 Z M 72.119 82.36 L 45.59 37.713 L 45.59 37.629 L 45.543 30.465 L 47.375 30.465 C 50.122 30.465 52.356 28.234 52.356 25.482 C 52.356 22.731 50.122 20.501 47.375 20.501 L 20.792 20.501 C 18.043 20.501 15.811 22.731 15.811 25.482 C 15.811 28.234 18.043 30.465 20.792 30.465 L 22.396 30.465 L 22.342 37.635 L -0.627 82.36 C -2.05 87.676 1.105 93.139 6.42 94.562 L 65.074 94.562 C 70.394 93.139 73.549 87.676 72.119 82.36 Z M 64.186 91.23 L 7.304 91.167 C 3.763 90.216 1.661 86.572 2.609 83.034 L 25.707 37.763 L 25.776 27.143 L 20.797 27.143 C 19.881 27.143 19.136 26.399 19.136 25.482 C 19.136 24.566 19.881 23.821 20.797 23.821 L 47.379 23.821 C 48.294 23.821 49.034 24.566 49.034 25.482 C 49.034 26.399 48.294 27.143 47.379 27.143 L 42.398 27.143 L 42.481 37.653 L 68.878 83.091 C 69.829 86.638 67.725 90.283 64.186 91.23 Z" style="fill-rule: nonzero; paint-order: fill; fill: url('#gradient-0'); stroke-width: 0px;"/>
  <g transform="matrix(0.076436, 0, 0, 0.076436, -2.568588, -17.913786)" style="">
    <path class="st0" d="M 612.565 1112.774 C 587.915 1088.115 571.043 1045.054 562.67 1005.874 C 554.284 1045.062 537.43 1088.132 512.771 1112.791 C 488.121 1137.433 445.047 1154.305 405.875 1162.695 C 445.063 1171.068 488.129 1187.93 512.779 1212.59 C 537.429 1237.24 554.301 1280.31 562.687 1319.49 C 571.06 1280.302 587.927 1237.232 612.573 1212.573 C 637.223 1187.923 680.297 1171.059 719.469 1162.669 C 680.29 1154.296 637.224 1137.425 612.565 1112.774 Z" style="fill-rule: nonzero; paint-order: fill; fill: url('#gradient-1');"/>
    <path class="st0" d="M 570.15 830.367 C 558.679 818.89 550.809 798.825 546.909 780.58 C 543.003 798.825 535.159 818.89 523.676 830.373 C 512.193 841.843 492.131 849.707 473.889 853.613 C 492.137 857.519 512.193 865.37 523.676 876.853 C 535.159 888.33 543.017 908.395 546.923 926.64 C 550.821 908.388 558.679 888.33 570.156 876.847 C 581.632 865.37 601.697 857.512 619.936 853.6 C 601.698 849.701 581.633 841.843 570.15 830.367 Z" style="fill-rule: nonzero; paint-order: fill; fill: url('#gradient-2');"/>
    <path class="st0" d="M 405.701 894.804 C 401.494 914.452 393.046 936.067 380.682 948.43 C 368.32 960.784 346.714 969.25 327.069 973.457 C 346.714 977.673 368.32 986.113 380.682 998.484 C 393.046 1010.846 401.511 1032.444 405.718 1052.102 C 409.921 1032.444 418.373 1010.847 430.741 998.476 C 443.095 986.114 464.705 977.656 484.346 973.441 C 464.706 969.241 443.095 960.785 430.733 948.422 C 418.373 936.068 409.904 914.453 405.701 894.804 Z" style="fill-rule: nonzero; paint-order: fill; fill: url('#gradient-3');"/>
  </g>
</svg>